<svg width="133" height="29" viewBox="0 0 133 29" fill="none" xmlns="http://www.w3.org/2000/svg">
<path d="M11.7031 8.01989C11.6236 7.2178 11.2822 6.5947 10.679 6.15057C10.0758 5.70644 9.2571 5.48438 8.22301 5.48438C7.52036 5.48438 6.92708 5.58381 6.44318 5.78267C5.95928 5.97491 5.58807 6.24337 5.32955 6.58807C5.07765 6.93277 4.9517 7.32386 4.9517 7.76136C4.93845 8.12595 5.01468 8.44413 5.1804 8.71591C5.35275 8.98769 5.58807 9.22301 5.88636 9.42188C6.18466 9.61411 6.52936 9.78314 6.92045 9.92898C7.31155 10.0682 7.72917 10.1875 8.1733 10.2869L10.0028 10.7244C10.8911 10.9233 11.7064 11.1884 12.4489 11.5199C13.1913 11.8513 13.8343 12.259 14.3778 12.7429C14.9214 13.2268 15.3423 13.7969 15.6406 14.4531C15.9456 15.1094 16.1013 15.8617 16.108 16.7102C16.1013 17.9564 15.7831 19.0369 15.1534 19.9517C14.5303 20.8598 13.6288 21.5658 12.4489 22.0696C11.2756 22.5668 9.86032 22.8153 8.20313 22.8153C6.55919 22.8153 5.12737 22.5634 3.90767 22.0597C2.6946 21.5559 1.74669 20.8101 1.06392 19.8224C0.387784 18.8281 0.033144 17.5985 0 16.1335H4.16619C4.2126 16.8163 4.40814 17.3864 4.75284 17.8438C5.10417 18.2945 5.5715 18.6359 6.15483 18.8679C6.74479 19.0933 7.41098 19.206 8.15341 19.206C8.88258 19.206 9.51562 19.0999 10.0526 18.8878C10.5961 18.6757 11.017 18.3807 11.3153 18.0028C11.6136 17.625 11.7628 17.1908 11.7628 16.7003C11.7628 16.2429 11.6269 15.8584 11.3551 15.5469C11.09 15.2353 10.6989 14.9702 10.1818 14.7514C9.6714 14.5327 9.04498 14.3338 8.30256 14.1548L6.08523 13.598C4.36837 13.1804 3.01278 12.5275 2.01847 11.6392C1.02415 10.7509 0.530303 9.55445 0.536932 8.04972C0.530303 6.81676 0.858428 5.73958 1.52131 4.81818C2.19081 3.89678 3.1089 3.17756 4.27557 2.66051C5.44224 2.14347 6.76799 1.88494 8.25284 1.88494C9.7642 1.88494 11.0833 2.14347 12.2102 2.66051C13.3438 3.17756 14.2254 3.89678 14.8551 4.81818C15.4848 5.73958 15.8097 6.80682 15.8295 8.01989H11.7031Z" fill="white"/>
<path d="M22.7624 18.1321L22.7724 13.0511H23.3888L28.2809 7.25426H33.1431L26.5707 14.9304H25.5664L22.7624 18.1321ZM18.9244 22.527V2.16335H23.1602V22.527H18.9244ZM28.4698 22.527L23.9755 15.875L26.7994 12.8821L33.4315 22.527H28.4698Z" fill="white"/>
<path d="M35.2212 22.527V7.25426H39.457V22.527H35.2212ZM37.3491 5.28551C36.7193 5.28551 36.1791 5.0767 35.7283 4.65909C35.2842 4.23485 35.0621 3.72775 35.0621 3.13778C35.0621 2.55445 35.2842 2.05398 35.7283 1.63636C36.1791 1.21212 36.7193 1 37.3491 1C37.9788 1 38.5157 1.21212 38.9599 1.63636C39.4106 2.05398 39.636 2.55445 39.636 3.13778C39.636 3.72775 39.4106 4.23485 38.9599 4.65909C38.5157 5.0767 37.9788 5.28551 37.3491 5.28551Z" fill="white"/>
<path d="M47.0859 2.16335V22.527H42.8501V2.16335H47.0859Z" fill="white"/>
<path d="M54.7148 2.16335V22.527H50.479V2.16335H54.7148Z" fill="white"/>
<path d="M70.8153 11.6094L66.9375 11.848C66.8712 11.5166 66.7287 11.2183 66.5099 10.9531C66.2912 10.6813 66.0028 10.4659 65.6449 10.3068C65.2936 10.1411 64.8726 10.0582 64.3821 10.0582C63.7259 10.0582 63.1723 10.1974 62.7216 10.4759C62.2708 10.7476 62.0455 11.1122 62.0455 11.5696C62.0455 11.9342 62.1913 12.2424 62.483 12.4943C62.7746 12.7462 63.2751 12.9484 63.9844 13.1009L66.7486 13.6577C68.2334 13.9626 69.3404 14.4531 70.0696 15.1293C70.7988 15.8054 71.1634 16.6937 71.1634 17.794C71.1634 18.795 70.8684 19.6733 70.2784 20.429C69.6951 21.1847 68.893 21.7746 67.8722 22.1989C66.858 22.6165 65.688 22.8253 64.3622 22.8253C62.3404 22.8253 60.7296 22.4044 59.5298 21.5625C58.3366 20.714 57.6373 19.5606 57.4318 18.1023L61.598 17.8835C61.724 18.5 62.0289 18.9706 62.5128 19.2955C62.9967 19.6136 63.6165 19.7727 64.3722 19.7727C65.1146 19.7727 65.7112 19.6302 66.1619 19.3452C66.6193 19.0535 66.8513 18.679 66.858 18.2216C66.8513 17.8371 66.6889 17.5223 66.3707 17.277C66.0526 17.0251 65.562 16.8329 64.8991 16.7003L62.2543 16.1733C60.7628 15.875 59.6525 15.358 58.9233 14.6222C58.2008 13.8864 57.8395 12.9484 57.8395 11.8082C57.8395 10.8272 58.1046 9.98201 58.6349 9.27273C59.1719 8.56345 59.9242 8.01657 60.892 7.6321C61.8665 7.24763 63.0066 7.0554 64.3125 7.0554C66.2415 7.0554 67.7595 7.46307 68.8665 8.27841C69.9801 9.09375 70.6297 10.2041 70.8153 11.6094Z" fill="white"/>
<path d="M78.0664 13.6974V22.527H73.8306V2.16335H77.9471V9.94886H78.1261C78.4708 9.04735 79.0276 8.34138 79.7965 7.83097C80.5655 7.31392 81.5299 7.0554 82.69 7.0554C83.7506 7.0554 84.6753 7.28741 85.4641 7.75142C86.2596 8.20881 86.8761 8.86837 87.3136 9.73011C87.7577 10.5852 87.9764 11.6094 87.9698 12.8026V22.527H83.734V13.5582C83.7406 12.617 83.502 11.8845 83.0181 11.3608C82.5408 10.8371 81.8713 10.5753 81.0096 10.5753C80.4329 10.5753 79.9225 10.6979 79.4783 10.9432C79.0408 11.1884 78.6961 11.5464 78.4442 12.017C78.199 12.4811 78.073 13.0412 78.0664 13.6974Z" fill="white"/>
<path d="M95.6584 22.8153C94.6839 22.8153 93.8156 22.6463 93.0533 22.3082C92.291 21.9635 91.6877 21.4564 91.2436 20.7869C90.8061 20.1108 90.5874 19.2689 90.5874 18.2614C90.5874 17.4129 90.7431 16.7003 91.0547 16.1236C91.3662 15.5469 91.7905 15.0829 92.3274 14.7315C92.8643 14.3802 93.4742 14.1151 94.157 13.9361C94.8464 13.7571 95.5689 13.6312 96.3246 13.5582C97.2128 13.4654 97.9287 13.3793 98.4723 13.2997C99.0159 13.2135 99.4103 13.0876 99.6555 12.9219C99.9008 12.7562 100.023 12.5109 100.023 12.1861V12.1264C100.023 11.4967 99.8246 11.0095 99.4268 10.6648C99.0358 10.3201 98.4789 10.1477 97.7564 10.1477C96.9941 10.1477 96.3875 10.3168 95.9368 10.6548C95.486 10.9863 95.1877 11.4039 95.0419 11.9077L91.1243 11.5895C91.3232 10.6615 91.7143 9.85938 92.2976 9.18324C92.8809 8.50047 93.6333 7.9768 94.5547 7.61222C95.4827 7.241 96.5566 7.0554 97.7763 7.0554C98.6248 7.0554 99.4368 7.15483 100.212 7.35369C100.995 7.55256 101.687 7.8608 102.29 8.27841C102.9 8.69602 103.381 9.23296 103.732 9.88921C104.084 10.5388 104.259 11.3177 104.259 12.2259V22.527H100.242V20.4091H100.123C99.8776 20.8864 99.5495 21.3073 99.1385 21.6719C98.7275 22.0298 98.2337 22.3116 97.657 22.517C97.0803 22.7159 96.4141 22.8153 95.6584 22.8153ZM96.8715 19.892C97.4946 19.892 98.0447 19.7694 98.522 19.5241C98.9993 19.2723 99.3738 18.9342 99.6456 18.5099C99.9174 18.0857 100.053 17.6051 100.053 17.0682V15.4474C99.9207 15.5336 99.7384 15.6132 99.5064 15.6861C99.281 15.7524 99.0258 15.8153 98.7408 15.875C98.4557 15.928 98.1707 15.9777 97.8857 16.0241C97.6006 16.0639 97.3421 16.1004 97.1101 16.1335C96.6129 16.2064 96.1787 16.3224 95.8075 16.4815C95.4363 16.6406 95.148 16.8561 94.9425 17.1278C94.737 17.393 94.6342 17.7244 94.6342 18.1222C94.6342 18.6989 94.843 19.1397 95.2607 19.4446C95.6849 19.7429 96.2218 19.892 96.8715 19.892Z" fill="white"/>
<path d="M107.545 22.527V7.25426H111.652V9.91903H111.811C112.089 8.97112 112.557 8.25521 113.213 7.77131C113.869 7.28078 114.625 7.03551 115.48 7.03551C115.692 7.03551 115.921 7.04877 116.166 7.07528C116.411 7.1018 116.627 7.13826 116.812 7.18466V10.9432C116.614 10.8835 116.339 10.8305 115.987 10.7841C115.636 10.7377 115.314 10.7145 115.023 10.7145C114.4 10.7145 113.843 10.8504 113.352 11.1222C112.868 11.3873 112.484 11.7585 112.199 12.2358C111.92 12.7131 111.781 13.2633 111.781 13.8864V22.527H107.545Z" fill="white"/>
<path d="M125.252 22.8253C123.681 22.8253 122.328 22.5071 121.195 21.8707C120.068 21.2277 119.2 20.3196 118.59 19.1463C117.98 17.9664 117.675 16.571 117.675 14.9602C117.675 13.3892 117.98 12.0104 118.59 10.8239C119.2 9.63731 120.058 8.7126 121.165 8.04972C122.279 7.38684 123.585 7.0554 125.083 7.0554C126.09 7.0554 127.028 7.2178 127.897 7.54261C128.772 7.8608 129.534 8.34138 130.184 8.98438C130.84 9.62737 131.35 10.4361 131.715 11.4105C132.079 12.3783 132.262 13.5118 132.262 14.8111V15.9744H119.365V13.3494H128.275C128.275 12.7396 128.142 12.1993 127.877 11.7287C127.612 11.258 127.244 10.8902 126.773 10.625C126.309 10.3532 125.769 10.2173 125.152 10.2173C124.509 10.2173 123.939 10.3665 123.442 10.6648C122.952 10.9564 122.567 11.3509 122.289 11.848C122.01 12.3385 121.868 12.8854 121.861 13.4886V15.9844C121.861 16.7401 122 17.393 122.279 17.9432C122.564 18.4934 122.965 18.9176 123.482 19.2159C123.999 19.5142 124.612 19.6634 125.321 19.6634C125.792 19.6634 126.223 19.5971 126.614 19.4645C127.005 19.3319 127.34 19.1331 127.618 18.8679C127.897 18.6027 128.109 18.2779 128.255 17.8935L132.172 18.152C131.973 19.0933 131.566 19.9152 130.949 20.6179C130.339 21.3139 129.551 21.8575 128.583 22.2486C127.622 22.6331 126.511 22.8253 125.252 22.8253Z" fill="white"/>
</svg>
