<svg width="78" height="18" viewBox="0 0 78 18" fill="none" xmlns="http://www.w3.org/2000/svg">
<path d="M4.03125 1V17H0.210938V1H4.03125Z" fill="white"/>
<path d="M9.8457 17.2031C9.08008 17.2031 8.40039 17.0755 7.80664 16.8203C7.2181 16.5599 6.75195 16.1693 6.4082 15.6484C6.06966 15.1224 5.90039 14.4635 5.90039 13.6719C5.90039 13.0052 6.01758 12.4427 6.25195 11.9844C6.48633 11.526 6.80924 11.1536 7.2207 10.8672C7.63216 10.5807 8.10612 10.3646 8.64258 10.2188C9.17904 10.0677 9.75195 9.96615 10.3613 9.91406C11.0436 9.85156 11.5931 9.78646 12.0098 9.71875C12.4264 9.64583 12.7285 9.54427 12.916 9.41406C13.1087 9.27865 13.2051 9.08854 13.2051 8.84375V8.80469C13.2051 8.40365 13.0671 8.09375 12.791 7.875C12.515 7.65625 12.1426 7.54688 11.6738 7.54688C11.1686 7.54688 10.7624 7.65625 10.4551 7.875C10.1478 8.09375 9.95247 8.39583 9.86914 8.78125L6.3457 8.65625C6.44987 7.92708 6.7181 7.27604 7.15039 6.70313C7.58789 6.125 8.18685 5.67188 8.94727 5.34375C9.71289 5.01042 10.6322 4.84375 11.7051 4.84375C12.4707 4.84375 13.1764 4.9349 13.8223 5.11719C14.4681 5.29427 15.0306 5.55469 15.5098 5.89844C15.9889 6.23698 16.3587 6.65365 16.6191 7.14844C16.8848 7.64323 17.0176 8.20833 17.0176 8.84375V17H13.4238V15.3281H13.3301C13.1165 15.7344 12.8431 16.0781 12.5098 16.3594C12.1816 16.6406 11.7936 16.8516 11.3457 16.9922C10.903 17.1328 10.403 17.2031 9.8457 17.2031ZM11.0254 14.7031C11.4368 14.7031 11.8066 14.6198 12.1348 14.4531C12.4681 14.2865 12.7337 14.0573 12.9316 13.7656C13.1296 13.4688 13.2285 13.125 13.2285 12.7344V11.5938C13.1191 11.651 12.9863 11.7031 12.8301 11.75C12.679 11.7969 12.5124 11.8411 12.3301 11.8828C12.1478 11.9245 11.9603 11.9609 11.7676 11.9922C11.5749 12.0234 11.39 12.0521 11.2129 12.0781C10.8535 12.1354 10.5462 12.224 10.291 12.3438C10.041 12.4635 9.84831 12.6198 9.71289 12.8125C9.58268 13 9.51758 13.224 9.51758 13.4844C9.51758 13.8802 9.6582 14.1823 9.93945 14.3906C10.2259 14.599 10.5879 14.7031 11.0254 14.7031Z" fill="white"/>
<path d="M23.1738 10.1562V17H19.3535V5H22.9863V7.20313H23.1191C23.3848 6.46875 23.8379 5.89323 24.4785 5.47656C25.1191 5.05469 25.8822 4.84375 26.7676 4.84375C27.6113 4.84375 28.3431 5.03385 28.9629 5.41406C29.5879 5.78906 30.0723 6.3151 30.416 6.99219C30.765 7.66406 30.9368 8.45052 30.9316 9.35156V17H27.1113V10.1016C27.1165 9.4349 26.9473 8.91406 26.6035 8.53906C26.265 8.16406 25.7936 7.97656 25.1895 7.97656C24.7884 7.97656 24.4342 8.0651 24.127 8.24219C23.8249 8.41406 23.5905 8.66146 23.4238 8.98438C23.2624 9.30729 23.179 9.69792 23.1738 10.1562Z" fill="white"/>
<path d="M37.6797 17.1719C36.7943 17.1719 35.9896 16.9427 35.2656 16.4844C34.5417 16.026 33.9635 15.3385 33.5312 14.4219C33.099 13.5052 32.8828 12.3672 32.8828 11.0078C32.8828 9.59635 33.1068 8.4349 33.5547 7.52344C34.0026 6.61198 34.5885 5.9375 35.3125 5.5C36.0417 5.0625 36.8255 4.84375 37.6641 4.84375C38.2943 4.84375 38.8333 4.95313 39.2812 5.17188C39.7292 5.38542 40.099 5.66146 40.3906 6C40.6823 6.33854 40.9036 6.6901 41.0547 7.05469H41.1328V1H44.9531V17H41.1719V15.0547H41.0547C40.8932 15.4245 40.6641 15.7708 40.3672 16.0938C40.0703 16.4167 39.6979 16.6771 39.25 16.875C38.8073 17.0729 38.2839 17.1719 37.6797 17.1719ZM39.0078 14.1953C39.4714 14.1953 39.8672 14.0651 40.1953 13.8047C40.5234 13.5391 40.776 13.1667 40.9531 12.6875C41.1302 12.2083 41.2188 11.6458 41.2188 11C41.2188 10.3438 41.1302 9.77865 40.9531 9.30469C40.7812 8.83073 40.5286 8.46615 40.1953 8.21094C39.8672 7.95573 39.4714 7.82812 39.0078 7.82812C38.5339 7.82812 38.1328 7.95833 37.8047 8.21875C37.4766 8.47917 37.2266 8.84635 37.0547 9.32031C36.888 9.79427 36.8047 10.3542 36.8047 11C36.8047 11.6458 36.8906 12.2083 37.0625 12.6875C37.2344 13.1667 37.4818 13.5391 37.8047 13.8047C38.1328 14.0651 38.5339 14.1953 39.0078 14.1953Z" fill="white"/>
<path d="M62.4707 9C62.4707 10.7604 62.1322 12.2526 61.4551 13.4766C60.778 14.7005 59.8613 15.6302 58.7051 16.2656C57.554 16.901 56.2624 17.2188 54.8301 17.2188C53.3926 17.2188 52.0983 16.8984 50.9473 16.2578C49.7962 15.6172 48.8822 14.6875 48.2051 13.4688C47.5332 12.2448 47.1973 10.7552 47.1973 9C47.1973 7.23958 47.5332 5.7474 48.2051 4.52344C48.8822 3.29948 49.7962 2.36979 50.9473 1.73438C52.0983 1.09896 53.3926 0.78125 54.8301 0.78125C56.2624 0.78125 57.554 1.09896 58.7051 1.73438C59.8613 2.36979 60.778 3.29948 61.4551 4.52344C62.1322 5.7474 62.4707 7.23958 62.4707 9ZM58.5176 9C58.5176 7.95833 58.3691 7.07813 58.0723 6.35938C57.7806 5.64062 57.3587 5.09635 56.8066 4.72656C56.2598 4.35677 55.6009 4.17188 54.8301 4.17188C54.0645 4.17188 53.4056 4.35677 52.8535 4.72656C52.3014 5.09635 51.877 5.64062 51.5801 6.35938C51.2884 7.07813 51.1426 7.95833 51.1426 9C51.1426 10.0417 51.2884 10.9219 51.5801 11.6406C51.877 12.3594 52.3014 12.9036 52.8535 13.2734C53.4056 13.6432 54.0645 13.8281 54.8301 13.8281C55.6009 13.8281 56.2598 13.6432 56.8066 13.2734C57.3587 12.9036 57.7806 12.3594 58.0723 11.6406C58.3691 10.9219 58.5176 10.0417 58.5176 9Z" fill="white"/>
<path d="M73.377 5.79687C73.3249 5.22396 73.0931 4.77865 72.6816 4.46094C72.2754 4.13802 71.6947 3.97656 70.9395 3.97656C70.4395 3.97656 70.0228 4.04167 69.6895 4.17188C69.3561 4.30208 69.1061 4.48177 68.9395 4.71094C68.7728 4.9349 68.6868 5.19271 68.6816 5.48438C68.6712 5.72396 68.7181 5.9349 68.8223 6.11719C68.9316 6.29948 69.0879 6.46094 69.291 6.60156C69.4993 6.73698 69.7493 6.85677 70.041 6.96094C70.3327 7.0651 70.6608 7.15625 71.0254 7.23438L72.4004 7.54688C73.1921 7.71875 73.89 7.94792 74.4941 8.23438C75.1035 8.52083 75.6139 8.86198 76.0254 9.25781C76.4421 9.65365 76.7572 10.1094 76.9707 10.625C77.1842 11.1406 77.2936 11.7188 77.2988 12.3594C77.2936 13.3698 77.0384 14.237 76.5332 14.9609C76.028 15.6849 75.3014 16.2396 74.3535 16.625C73.4108 17.0104 72.2728 17.2031 70.9395 17.2031C69.6009 17.2031 68.4342 17.0026 67.4395 16.6016C66.4447 16.2005 65.6712 15.5911 65.1191 14.7734C64.5671 13.9557 64.2832 12.9219 64.2676 11.6719H67.9707C68.002 12.1875 68.14 12.6172 68.3848 12.9609C68.6296 13.3047 68.9655 13.5651 69.3926 13.7422C69.8249 13.9193 70.3249 14.0078 70.8926 14.0078C71.4134 14.0078 71.8561 13.9375 72.2207 13.7969C72.5905 13.6563 72.8743 13.4609 73.0723 13.2109C73.2702 12.9609 73.3717 12.6745 73.377 12.3516C73.3717 12.0495 73.278 11.7917 73.0957 11.5781C72.9134 11.3594 72.6322 11.1719 72.252 11.0156C71.877 10.8542 71.3978 10.7057 70.8145 10.5703L69.1426 10.1797C67.7572 9.86198 66.666 9.34896 65.8691 8.64063C65.0723 7.92708 64.6764 6.96354 64.6816 5.75C64.6764 4.76042 64.9421 3.89323 65.4785 3.14844C66.015 2.40365 66.7572 1.82292 67.7051 1.40625C68.653 0.989584 69.7337 0.78125 70.9473 0.78125C72.1868 0.78125 73.2624 0.992187 74.1738 1.41406C75.0905 1.83073 75.8014 2.41667 76.3066 3.17188C76.8118 3.92708 77.0697 4.80208 77.0801 5.79687H73.377Z" fill="white"/>
</svg>
