<svg width="133" height="29" viewBox="0 0 133 29" fill="none" xmlns="http://www.w3.org/2000/svg">
<path d="M0.769897 23.0001V2.63647H14.2529V6.18619H5.0753V11.0385H13.358V14.5882H5.0753V23.0001H0.769897Z" fill="white"/>
<path d="M21.233 23.2885C20.2585 23.2885 19.3902 23.1194 18.6279 22.7814C17.8655 22.4367 17.2623 21.9296 16.8182 21.2601C16.3807 20.5839 16.1619 19.7421 16.1619 18.7345C16.1619 17.886 16.3177 17.1734 16.6293 16.5967C16.9408 16.02 17.3651 15.556 17.902 15.2047C18.4389 14.8533 19.0488 14.5882 19.7315 14.4092C20.4209 14.2302 21.1435 14.1043 21.8992 14.0314C22.7874 13.9386 23.5033 13.8524 24.0469 13.7728C24.5904 13.6867 24.9849 13.5607 25.2301 13.395C25.4754 13.2293 25.598 12.984 25.598 12.6592V12.5995C25.598 11.9698 25.3992 11.4826 25.0014 11.1379C24.6103 10.7932 24.0535 10.6208 23.331 10.6208C22.5687 10.6208 21.9621 10.7899 21.5114 11.128C21.0606 11.4594 20.7623 11.877 20.6165 12.3808L16.6989 12.0626C16.8977 11.1346 17.2888 10.3325 17.8722 9.65636C18.4555 8.9736 19.2079 8.44992 20.1293 8.08534C21.0573 7.71413 22.1312 7.52852 23.3509 7.52852C24.1993 7.52852 25.0114 7.62795 25.7869 7.82682C26.5691 8.02568 27.2618 8.33392 27.8651 8.75153C28.4749 9.16915 28.9555 9.70608 29.3068 10.3623C29.6582 11.0119 29.8338 11.7908 29.8338 12.699V23.0001H25.8168V20.8822H25.6975C25.4522 21.3595 25.1241 21.7804 24.7131 22.145C24.3021 22.503 23.8082 22.7847 23.2315 22.9902C22.6548 23.189 21.9886 23.2885 21.233 23.2885ZM22.446 20.3652C23.0691 20.3652 23.6193 20.2425 24.0966 19.9973C24.5739 19.7454 24.9484 19.4073 25.2202 18.9831C25.492 18.5588 25.6279 18.0782 25.6279 17.5413V15.9206C25.4953 16.0067 25.313 16.0863 25.081 16.1592C24.8556 16.2255 24.6004 16.2885 24.3154 16.3481C24.0303 16.4012 23.7453 16.4509 23.4602 16.4973C23.1752 16.537 22.9167 16.5735 22.6847 16.6066C22.1875 16.6796 21.7533 16.7956 21.3821 16.9547C21.0109 17.1137 20.7225 17.3292 20.5171 17.601C20.3116 17.8661 20.2088 18.1976 20.2088 18.5953C20.2088 19.172 20.4176 19.6128 20.8352 19.9177C21.2595 20.216 21.7964 20.3652 22.446 20.3652Z" fill="white"/>
<path d="M40.0206 23.2984C38.4562 23.2984 37.1106 22.967 35.9837 22.3041C34.8634 21.6346 34.0017 20.7066 33.3984 19.52C32.8019 18.3334 32.5036 16.9679 32.5036 15.4234C32.5036 13.859 32.8052 12.4869 33.4084 11.3069C34.0182 10.1204 34.8833 9.19566 36.0036 8.53278C37.1238 7.86327 38.4562 7.52852 40.0007 7.52852C41.3331 7.52852 42.4998 7.77047 43.5007 8.25437C44.5017 8.73827 45.2938 9.41772 45.8771 10.2927C46.4605 11.1677 46.782 12.1952 46.8416 13.3751H42.8445C42.7318 12.6128 42.4335 11.9996 41.9496 11.5356C41.4723 11.065 40.8459 10.8297 40.0703 10.8297C39.4141 10.8297 38.8407 11.0086 38.3502 11.3666C37.8663 11.7179 37.4884 12.2316 37.2166 12.9078C36.9448 13.5839 36.809 14.4026 36.809 15.3637C36.809 16.3382 36.9415 17.1668 37.2067 17.8495C37.4785 18.5323 37.8596 19.0527 38.3502 19.4106C38.8407 19.7686 39.4141 19.9476 40.0703 19.9476C40.5542 19.9476 40.9884 19.8481 41.3729 19.6493C41.764 19.4504 42.0855 19.162 42.3374 18.7842C42.5959 18.3997 42.7649 17.939 42.8445 17.4021H46.8416C46.7753 18.5688 46.4572 19.5962 45.8871 20.4845C45.3236 21.3661 44.5448 22.0555 43.5504 22.5527C42.5561 23.0498 41.3795 23.2984 40.0206 23.2984Z" fill="white"/>
<path d="M56.5139 23.2984C54.9428 23.2984 53.5906 22.9802 52.457 22.3439C51.3301 21.7009 50.4618 20.7927 49.8519 19.6194C49.2421 18.4395 48.9372 17.0441 48.9372 15.4333C48.9372 13.8623 49.2421 12.4835 49.8519 11.297C50.4618 10.1104 51.3202 9.18572 52.4272 8.52284C53.5408 7.85996 54.8467 7.52852 56.3448 7.52852C57.3524 7.52852 58.2904 7.69093 59.1587 8.01574C60.0337 8.33392 60.7961 8.81451 61.4457 9.4575C62.1019 10.1005 62.6123 10.9092 62.9769 11.8836C63.3415 12.8514 63.5238 13.985 63.5238 15.2842V16.4476H50.6275V13.8226H59.5366C59.5366 13.2127 59.404 12.6725 59.1389 12.2018C58.8737 11.7312 58.5058 11.3633 58.0352 11.0981C57.5712 10.8263 57.0309 10.6905 56.4144 10.6905C55.7714 10.6905 55.2014 10.8396 54.7042 11.1379C54.2137 11.4296 53.8292 11.824 53.5508 12.3211C53.2724 12.8117 53.1299 13.3585 53.1232 13.9618V16.4575C53.1232 17.2132 53.2624 17.8661 53.5408 18.4163C53.8259 18.9665 54.2269 19.3907 54.744 19.689C55.261 19.9873 55.8742 20.1365 56.5835 20.1365C57.0541 20.1365 57.485 20.0702 57.8761 19.9376C58.2672 19.805 58.6019 19.6062 58.8803 19.341C59.1587 19.0759 59.3709 18.7511 59.5167 18.3666L63.4343 18.6251C63.2355 19.5664 62.8278 20.3884 62.2113 21.091C61.6015 21.787 60.8126 22.3306 59.8448 22.7217C58.8837 23.1062 57.7733 23.2984 56.5139 23.2984Z" fill="white"/>
<path d="M66.3676 23.0001V2.63647H70.6033V10.2927H70.7326C70.9182 9.88174 71.1867 9.46413 71.538 9.03988C71.896 8.60901 72.36 8.25106 72.9301 7.96602C73.5068 7.67435 74.2227 7.52852 75.0778 7.52852C76.1914 7.52852 77.2189 7.82019 78.1602 8.40352C79.1015 8.98022 79.8538 9.85191 80.4173 11.0186C80.9807 12.1786 81.2624 13.6336 81.2624 15.3836C81.2624 17.0872 80.9873 18.5257 80.4372 19.699C79.8936 20.8656 79.1512 21.7506 78.2099 22.3538C77.2752 22.9504 76.2279 23.2487 75.0678 23.2487C74.2459 23.2487 73.5465 23.1128 72.9698 22.841C72.3997 22.5692 71.9324 22.2279 71.5678 21.8169C71.2033 21.3993 70.9248 20.9783 70.7326 20.5541H70.5437V23.0001H66.3676ZM70.5139 15.3637C70.5139 16.2719 70.6398 17.064 70.8917 17.7402C71.1436 18.4163 71.5082 18.9433 71.9855 19.3211C72.4627 19.6923 73.0427 19.878 73.7255 19.878C74.4149 19.878 74.9982 19.689 75.4755 19.3112C75.9528 18.9267 76.3141 18.3964 76.5593 17.7203C76.8112 17.0375 76.9372 16.252 76.9372 15.3637C76.9372 14.4821 76.8145 13.7066 76.5693 13.037C76.324 12.3675 75.9627 11.8439 75.4855 11.466C75.0082 11.0882 74.4215 10.8993 73.7255 10.8993C73.0361 10.8993 72.4528 11.0816 71.9755 11.4461C71.5049 11.8107 71.1436 12.3278 70.8917 12.9973C70.6398 13.6668 70.5139 14.4556 70.5139 15.3637Z" fill="white"/>
<path d="M90.9894 23.2984C89.4448 23.2984 88.1091 22.9703 86.9823 22.314C85.862 21.6512 84.9969 20.7298 84.3871 19.5498C83.7772 18.3633 83.4723 16.9878 83.4723 15.4234C83.4723 13.8458 83.7772 12.467 84.3871 11.287C84.9969 10.1005 85.862 9.17909 86.9823 8.52284C88.1091 7.85996 89.4448 7.52852 90.9894 7.52852C92.5339 7.52852 93.8663 7.85996 94.9865 8.52284C96.1134 9.17909 96.9818 10.1005 97.5916 11.287C98.2015 12.467 98.5064 13.8458 98.5064 15.4234C98.5064 16.9878 98.2015 18.3633 97.5916 19.5498C96.9818 20.7298 96.1134 21.6512 94.9865 22.314C93.8663 22.9703 92.5339 23.2984 90.9894 23.2984ZM91.0092 20.0172C91.7119 20.0172 92.2985 19.8183 92.7692 19.4206C93.2398 19.0162 93.5945 18.466 93.8331 17.77C94.0784 17.074 94.201 16.2818 94.201 15.3936C94.201 14.5053 94.0784 13.7132 93.8331 13.0172C93.5945 12.3211 93.2398 11.7709 92.7692 11.3666C92.2985 10.9622 91.7119 10.7601 91.0092 10.7601C90.3 10.7601 89.7034 10.9622 89.2195 11.3666C88.7422 11.7709 88.3809 12.3211 88.1357 13.0172C87.897 13.7132 87.7777 14.5053 87.7777 15.3936C87.7777 16.2818 87.897 17.074 88.1357 17.77C88.3809 18.466 88.7422 19.0162 89.2195 19.4206C89.7034 19.8183 90.3 20.0172 91.0092 20.0172Z" fill="white"/>
<path d="M108.161 23.2984C106.617 23.2984 105.281 22.9703 104.154 22.314C103.034 21.6512 102.169 20.7298 101.559 19.5498C100.949 18.3633 100.644 16.9878 100.644 15.4234C100.644 13.8458 100.949 12.467 101.559 11.287C102.169 10.1005 103.034 9.17909 104.154 8.52284C105.281 7.85996 106.617 7.52852 108.161 7.52852C109.706 7.52852 111.038 7.85996 112.158 8.52284C113.285 9.17909 114.154 10.1005 114.764 11.287C115.373 12.467 115.678 13.8458 115.678 15.4234C115.678 16.9878 115.373 18.3633 114.764 19.5498C114.154 20.7298 113.285 21.6512 112.158 22.314C111.038 22.9703 109.706 23.2984 108.161 23.2984ZM108.181 20.0172C108.884 20.0172 109.47 19.8183 109.941 19.4206C110.412 19.0162 110.766 18.466 111.005 17.77C111.25 17.074 111.373 16.2818 111.373 15.3936C111.373 14.5053 111.25 13.7132 111.005 13.0172C110.766 12.3211 110.412 11.7709 109.941 11.3666C109.47 10.9622 108.884 10.7601 108.181 10.7601C107.472 10.7601 106.875 10.9622 106.391 11.3666C105.914 11.7709 105.553 12.3211 105.308 13.0172C105.069 13.7132 104.95 14.5053 104.95 15.3936C104.95 16.2818 105.069 17.074 105.308 17.77C105.553 18.466 105.914 19.0162 106.391 19.4206C106.875 19.8183 107.472 20.0172 108.181 20.0172Z" fill="white"/>
<path d="M122.271 18.6052L122.281 13.5243H122.897L127.789 7.72738H132.651L126.079 15.4035H125.075L122.271 18.6052ZM118.433 23.0001V2.63647H122.668V23.0001H118.433ZM127.978 23.0001L123.484 16.3481L126.308 13.3552L132.94 23.0001H127.978Z" fill="white"/>
</svg>
