<svg width="125" height="29" viewBox="0 0 125 29" fill="none" xmlns="http://www.w3.org/2000/svg">
<path d="M18.7372 9.76558H14.3821C14.3026 9.20213 14.1401 8.70166 13.8949 8.26416C13.6496 7.82003 13.3347 7.44219 12.9503 7.13064C12.5658 6.81908 12.1217 6.58045 11.6179 6.41473C11.1207 6.24901 10.5805 6.16615 9.99715 6.16615C8.94318 6.16615 8.02509 6.42799 7.24289 6.95166C6.4607 7.46871 5.85416 8.22439 5.42329 9.21871C4.99242 10.2064 4.77698 11.4062 4.77698 12.8181C4.77698 14.2698 4.99242 15.4895 5.42329 16.4772C5.86079 17.4649 6.47064 18.2107 7.25284 18.7144C8.03503 19.2182 8.93986 19.4701 9.96732 19.4701C10.544 19.4701 11.0776 19.3939 11.5682 19.2414C12.0653 19.089 12.5062 18.8669 12.8906 18.5752C13.2751 18.2769 13.5933 17.9157 13.8452 17.4914C14.1037 17.0672 14.2827 16.5833 14.3821 16.0397L18.7372 16.0596C18.6245 16.9943 18.3428 17.8958 17.892 18.7642C17.4479 19.6259 16.848 20.3982 16.0923 21.0809C15.3433 21.7571 14.4484 22.294 13.4077 22.6917C12.3736 23.0828 11.2036 23.2784 9.89772 23.2784C8.08143 23.2784 6.45738 22.8674 5.02556 22.0454C3.60037 21.2234 2.47348 20.0336 1.64488 18.4758C0.822911 16.918 0.411926 15.0322 0.411926 12.8181C0.411926 10.5975 0.82954 8.70829 1.66477 7.15053C2.49999 5.59276 3.63352 4.40621 5.06534 3.59087C6.49715 2.7689 8.10795 2.35791 9.89772 2.35791C11.0776 2.35791 12.1714 2.52363 13.179 2.85507C14.1932 3.18651 15.0914 3.67041 15.8736 4.30677C16.6558 4.93651 17.2921 5.70876 17.7827 6.62354C18.2798 7.53831 18.598 8.58566 18.7372 9.76558Z" fill="white"/>
<path d="M28.6456 23.2983C27.1011 23.2983 25.7654 22.9701 24.6385 22.3139C23.5182 21.651 22.6532 20.7296 22.0433 19.5497C21.4335 18.3631 21.1285 16.9876 21.1285 15.4233C21.1285 13.8456 21.4335 12.4668 22.0433 11.2869C22.6532 10.1003 23.5182 9.17893 24.6385 8.52268C25.7654 7.8598 27.1011 7.52837 28.6456 7.52837C30.1901 7.52837 31.5225 7.8598 32.6427 8.52268C33.7696 9.17893 34.638 10.1003 35.2479 11.2869C35.8577 12.4668 36.1626 13.8456 36.1626 15.4233C36.1626 16.9876 35.8577 18.3631 35.2479 19.5497C34.638 20.7296 33.7696 21.651 32.6427 22.3139C31.5225 22.9701 30.1901 23.2983 28.6456 23.2983ZM28.6655 20.017C29.3681 20.017 29.9548 19.8181 30.4254 19.4204C30.8961 19.0161 31.2507 18.4659 31.4893 17.7698C31.7346 17.0738 31.8572 16.2817 31.8572 15.3934C31.8572 14.5052 31.7346 13.713 31.4893 13.017C31.2507 12.321 30.8961 11.7708 30.4254 11.3664C29.9548 10.9621 29.3681 10.7599 28.6655 10.7599C27.9562 10.7599 27.3596 10.9621 26.8757 11.3664C26.3984 11.7708 26.0372 12.321 25.7919 13.017C25.5533 13.713 25.4339 14.5052 25.4339 15.3934C25.4339 16.2817 25.5533 17.0738 25.7919 17.7698C26.0372 18.4659 26.3984 19.0161 26.8757 19.4204C27.3596 19.8181 27.9562 20.017 28.6655 20.017Z" fill="white"/>
<path d="M48.7109 16.4971V7.72723H52.9467V23H48.88V20.2258H48.7209C48.3762 21.1207 47.8028 21.8399 47.0007 22.3835C46.2053 22.927 45.2341 23.1988 44.0874 23.1988C43.0665 23.1988 42.1683 22.9668 41.3927 22.5028C40.6172 22.0388 40.0106 21.3792 39.5731 20.5241C39.1423 19.669 38.9235 18.6448 38.9169 17.4517V7.72723H43.1527V16.696C43.1593 17.5975 43.4013 18.3101 43.8785 18.8338C44.3558 19.3574 44.9955 19.6193 45.7976 19.6193C46.308 19.6193 46.7853 19.5033 47.2294 19.2713C47.6735 19.0326 48.0315 18.6813 48.3033 18.2173C48.5817 17.7533 48.7176 17.1799 48.7109 16.4971Z" fill="white"/>
<path d="M56.3349 23V7.72723H60.4414V10.392H60.6005C60.8789 9.44408 61.3462 8.72818 62.0025 8.24428C62.6587 7.75374 63.4144 7.50848 64.2695 7.50848C64.4816 7.50848 64.7103 7.52174 64.9556 7.54825C65.2009 7.57477 65.4163 7.61123 65.6019 7.65763V11.4161C65.403 11.3565 65.128 11.3035 64.7766 11.2571C64.4253 11.2107 64.1038 11.1875 63.8121 11.1875C63.189 11.1875 62.6322 11.3233 62.1417 11.5951C61.6578 11.8603 61.2733 12.2315 60.9883 12.7088C60.7099 13.186 60.5707 13.7362 60.5707 14.3593V23H56.3349Z" fill="white"/>
<path d="M80.4993 12.0823L76.6214 12.321C76.5552 11.9895 76.4126 11.6912 76.1939 11.4261C75.9751 11.1543 75.6868 10.9389 75.3288 10.7798C74.9775 10.6141 74.5566 10.5312 74.066 10.5312C73.4098 10.5312 72.8563 10.6704 72.4055 10.9488C71.9548 11.2206 71.7294 11.5852 71.7294 12.0426C71.7294 12.4072 71.8752 12.7154 72.1669 12.9673C72.4586 13.2192 72.959 13.4214 73.6683 13.5738L76.4325 14.1306C77.9174 14.4356 79.0244 14.9261 79.7535 15.6022C80.4827 16.2784 80.8473 17.1666 80.8473 18.267C80.8473 19.2679 80.5523 20.1463 79.9624 20.9019C79.379 21.6576 78.5769 22.2476 77.5561 22.6718C76.5419 23.0894 75.3719 23.2983 74.0462 23.2983C72.0244 23.2983 70.4136 22.8773 69.2138 22.0355C68.0206 21.187 67.3213 20.0336 67.1158 18.5752L71.282 18.3565C71.4079 18.973 71.7128 19.4436 72.1967 19.7684C72.6806 20.0866 73.3004 20.2457 74.0561 20.2457C74.7985 20.2457 75.3951 20.1032 75.8459 19.8181C76.3033 19.5265 76.5353 19.1519 76.5419 18.6946C76.5353 18.3101 76.3729 17.9952 76.0547 17.75C75.7365 17.4981 75.246 17.3058 74.5831 17.1733L71.9382 16.6463C70.4467 16.348 69.3364 15.8309 68.6072 15.0951C67.8847 14.3593 67.5234 13.4214 67.5234 12.2812C67.5234 11.3001 67.7886 10.455 68.3189 9.74569C68.8558 9.03641 69.6082 8.48954 70.576 8.10507C71.5504 7.7206 72.6906 7.52837 73.9964 7.52837C75.9254 7.52837 77.4434 7.93604 78.5504 8.75138C79.6641 9.56672 80.3137 10.677 80.4993 12.0823Z" fill="white"/>
<path d="M90.4748 23.2983C88.9038 23.2983 87.5515 22.9801 86.418 22.3437C85.2911 21.7007 84.4227 20.7926 83.8129 19.6193C83.203 18.4393 82.8981 17.044 82.8981 15.4332C82.8981 13.8622 83.203 12.4834 83.8129 11.2968C84.4227 10.1103 85.2811 9.18556 86.3881 8.52268C87.5018 7.8598 88.8076 7.52837 90.3057 7.52837C91.3133 7.52837 92.2513 7.69077 93.1197 8.01558C93.9947 8.33376 94.757 8.81435 95.4066 9.45734C96.0629 10.1003 96.5733 10.909 96.9379 11.8835C97.3024 12.8513 97.4847 13.9848 97.4847 15.284V16.4474H84.5884V13.8224H93.4975C93.4975 13.2126 93.3649 12.6723 93.0998 12.2017C92.8346 11.731 92.4667 11.3631 91.9961 11.098C91.5321 10.8262 90.9918 10.6903 90.3754 10.6903C89.7324 10.6903 89.1623 10.8394 88.6651 11.1377C88.1746 11.4294 87.7901 11.8238 87.5117 12.321C87.2333 12.8115 87.0908 13.3584 87.0842 13.9616V16.4573C87.0842 17.213 87.2234 17.866 87.5018 18.4161C87.7868 18.9663 88.1878 19.3906 88.7049 19.6889C89.2219 19.9872 89.8351 20.1363 90.5444 20.1363C91.015 20.1363 91.4459 20.07 91.837 19.9375C92.2281 19.8049 92.5628 19.606 92.8413 19.3409C93.1197 19.0757 93.3318 18.7509 93.4776 18.3664L97.3952 18.625C97.1964 19.5662 96.7887 20.3882 96.1722 21.0909C95.5624 21.7869 94.7736 22.3304 93.8057 22.7215C92.8446 23.106 91.7343 23.2983 90.4748 23.2983Z" fill="white"/>
<path d="M100.249 23V7.72723H104.355V10.392H104.515C104.793 9.44408 105.26 8.72818 105.917 8.24428C106.573 7.75374 107.328 7.50848 108.184 7.50848C108.396 7.50848 108.624 7.52174 108.87 7.54825C109.115 7.57477 109.33 7.61123 109.516 7.65763V11.4161C109.317 11.3565 109.042 11.3035 108.691 11.2571C108.339 11.2107 108.018 11.1875 107.726 11.1875C107.103 11.1875 106.546 11.3233 106.056 11.5951C105.572 11.8603 105.187 12.2315 104.902 12.7088C104.624 13.186 104.485 13.7362 104.485 14.3593V23H100.249Z" fill="white"/>
<path d="M115.624 23.2883C114.649 23.2883 113.781 23.1193 113.018 22.7812C112.256 22.4365 111.653 21.9294 111.209 21.2599C110.771 20.5838 110.553 19.7419 110.553 18.7343C110.553 17.8858 110.708 17.1733 111.02 16.5965C111.331 16.0198 111.756 15.5558 112.293 15.2045C112.83 14.8532 113.439 14.588 114.122 14.409C114.812 14.2301 115.534 14.1041 116.29 14.0312C117.178 13.9384 117.894 13.8522 118.437 13.7727C118.981 13.6865 119.375 13.5606 119.621 13.3948C119.866 13.2291 119.989 12.9839 119.989 12.659V12.5994C119.989 11.9697 119.79 11.4824 119.392 11.1377C119.001 10.793 118.444 10.6207 117.722 10.6207C116.959 10.6207 116.353 10.7897 115.902 11.1278C115.451 11.4592 115.153 11.8769 115.007 12.3806L111.089 12.0625C111.288 11.1344 111.679 10.3323 112.263 9.65621C112.846 8.97344 113.598 8.44977 114.52 8.08518C115.448 7.71397 116.522 7.52837 117.741 7.52837C118.59 7.52837 119.402 7.6278 120.178 7.82666C120.96 8.02552 121.652 8.33376 122.256 8.75138C122.866 9.16899 123.346 9.70592 123.697 10.3622C124.049 11.0118 124.224 11.7907 124.224 12.6988V23H120.207V20.8821H120.088C119.843 21.3593 119.515 21.7803 119.104 22.1448C118.693 22.5028 118.199 22.7845 117.622 22.99C117.045 23.1889 116.379 23.2883 115.624 23.2883ZM116.837 20.365C117.46 20.365 118.01 20.2424 118.487 19.9971C118.964 19.7452 119.339 19.4072 119.611 18.9829C119.883 18.5587 120.018 18.0781 120.018 17.5411V15.9204C119.886 16.0066 119.704 16.0861 119.472 16.159C119.246 16.2253 118.991 16.2883 118.706 16.348C118.421 16.401 118.136 16.4507 117.851 16.4971C117.566 16.5369 117.307 16.5733 117.075 16.6065C116.578 16.6794 116.144 16.7954 115.773 16.9545C115.402 17.1136 115.113 17.329 114.908 17.6008C114.702 17.866 114.599 18.1974 114.599 18.5951C114.599 19.1718 114.808 19.6126 115.226 19.9176C115.65 20.2159 116.187 20.365 116.837 20.365Z" fill="white"/>
</svg>
