<svg width="96" height="30" viewBox="0 0 96 30" fill="none" xmlns="http://www.w3.org/2000/svg">
<path d="M14.6062 9.21871C14.467 8.7348 14.2714 8.30725 14.0195 7.93604C13.7676 7.55819 13.4594 7.24001 13.0948 6.98149C12.7368 6.71634 12.3259 6.51416 11.8618 6.37496C11.4045 6.23575 10.8974 6.16615 10.3405 6.16615C9.29981 6.16615 8.38504 6.42467 7.59621 6.94172C6.81402 7.45876 6.20417 8.21113 5.76667 9.19882C5.32917 10.1799 5.11042 11.3797 5.11042 12.7983C5.11042 14.2168 5.32585 15.4233 5.75673 16.4176C6.1876 17.4119 6.79744 18.1709 7.58627 18.6946C8.3751 19.2116 9.30644 19.4701 10.3803 19.4701C11.3547 19.4701 12.1866 19.2978 12.876 18.9531C13.5721 18.6018 14.1024 18.1079 14.467 17.4715C14.8382 16.8352 15.0238 16.0828 15.0238 15.2144L15.8988 15.3437H10.6488V12.1022H19.1701V14.6676C19.1701 16.4573 18.7922 17.9952 18.0366 19.2812C17.2809 20.5606 16.2402 21.5483 14.9144 22.2443C13.5886 22.9337 12.0706 23.2784 10.3604 23.2784C8.45133 23.2784 6.77424 22.8574 5.32917 22.0156C3.88409 21.1671 2.7572 19.964 1.94849 18.4062C1.1464 16.8418 0.745361 14.9858 0.745361 12.838C0.745361 11.1875 0.983998 9.71587 1.46127 8.42325C1.94517 7.12401 2.62131 6.02363 3.48968 5.12212C4.35805 4.2206 5.36894 3.53452 6.52235 3.06388C7.67576 2.59323 8.92529 2.35791 10.2709 2.35791C11.4243 2.35791 12.4982 2.52694 13.4925 2.86501C14.4868 3.19645 15.3685 3.6671 16.1374 4.27694C16.913 4.88679 17.546 5.61264 18.0366 6.4545C18.5271 7.28973 18.842 8.21113 18.9812 9.21871H14.6062Z" fill="white"/>
<path d="M29.2251 23.2983C27.6806 23.2983 26.3449 22.9701 25.218 22.3139C24.0978 21.651 23.2327 20.7296 22.6228 19.5497C22.013 18.3631 21.7081 16.9876 21.7081 15.4233C21.7081 13.8456 22.013 12.4668 22.6228 11.2869C23.2327 10.1003 24.0978 9.17893 25.218 8.52268C26.3449 7.8598 27.6806 7.52837 29.2251 7.52837C30.7696 7.52837 32.102 7.8598 33.2223 8.52268C34.3492 9.17893 35.2175 10.1003 35.8274 11.2869C36.4372 12.4668 36.7422 13.8456 36.7422 15.4233C36.7422 16.9876 36.4372 18.3631 35.8274 19.5497C35.2175 20.7296 34.3492 21.651 33.2223 22.3139C32.102 22.9701 30.7696 23.2983 29.2251 23.2983ZM29.245 20.017C29.9477 20.017 30.5343 19.8181 31.0049 19.4204C31.4756 19.0161 31.8302 18.4659 32.0689 17.7698C32.3141 17.0738 32.4368 16.2817 32.4368 15.3934C32.4368 14.5052 32.3141 13.713 32.0689 13.017C31.8302 12.321 31.4756 11.7708 31.0049 11.3664C30.5343 10.9621 29.9477 10.7599 29.245 10.7599C28.5357 10.7599 27.9391 10.9621 27.4552 11.3664C26.978 11.7708 26.6167 12.321 26.3714 13.017C26.1328 13.713 26.0135 14.5052 26.0135 15.3934C26.0135 16.2817 26.1328 17.0738 26.3714 17.7698C26.6167 18.4659 26.978 19.0161 27.4552 19.4204C27.9391 19.8181 28.5357 20.017 29.245 20.017Z" fill="white"/>
<path d="M46.397 23.2983C44.8525 23.2983 43.5168 22.9701 42.3899 22.3139C41.2696 21.651 40.4046 20.7296 39.7947 19.5497C39.1849 18.3631 38.8799 16.9876 38.8799 15.4233C38.8799 13.8456 39.1849 12.4668 39.7947 11.2869C40.4046 10.1003 41.2696 9.17893 42.3899 8.52268C43.5168 7.8598 44.8525 7.52837 46.397 7.52837C47.9415 7.52837 49.2739 7.8598 50.3942 8.52268C51.521 9.17893 52.3894 10.1003 52.9993 11.2869C53.6091 12.4668 53.914 13.8456 53.914 15.4233C53.914 16.9876 53.6091 18.3631 52.9993 19.5497C52.3894 20.7296 51.521 21.651 50.3942 22.3139C49.2739 22.9701 47.9415 23.2983 46.397 23.2983ZM46.4169 20.017C47.1195 20.017 47.7062 19.8181 48.1768 19.4204C48.6475 19.0161 49.0021 18.4659 49.2407 17.7698C49.486 17.0738 49.6086 16.2817 49.6086 15.3934C49.6086 14.5052 49.486 13.713 49.2407 13.017C49.0021 12.321 48.6475 11.7708 48.1768 11.3664C47.7062 10.9621 47.1195 10.7599 46.4169 10.7599C45.7076 10.7599 45.111 10.9621 44.6271 11.3664C44.1498 11.7708 43.7886 12.321 43.5433 13.017C43.3047 13.713 43.1853 14.5052 43.1853 15.3934C43.1853 16.2817 43.3047 17.0738 43.5433 17.7698C43.7886 18.4659 44.1498 19.0161 44.6271 19.4204C45.111 19.8181 45.7076 20.017 46.4169 20.017Z" fill="white"/>
<path d="M63.549 29.0454C62.1768 29.0454 61.0002 28.8565 60.0192 28.4786C59.0447 28.1074 58.2692 27.6003 57.6924 26.9573C57.1157 26.3143 56.7412 25.5918 56.5689 24.7897L60.4865 24.2627C60.6058 24.5677 60.7947 24.8527 61.0532 25.1179C61.3118 25.383 61.6531 25.5951 62.0774 25.7542C62.5083 25.9199 63.0319 26.0028 63.6484 26.0028C64.5698 26.0028 65.3288 25.7774 65.9254 25.3267C66.5286 24.8825 66.8302 24.1368 66.8302 23.0894V20.2954H66.6513C66.4657 20.7197 66.1872 21.1207 65.816 21.4985C65.4448 21.8764 64.9675 22.1846 64.3842 22.4233C63.8009 22.6619 63.1049 22.7812 62.2961 22.7812C61.1494 22.7812 60.1053 22.5161 59.164 21.9858C58.2294 21.4488 57.4836 20.6302 56.9268 19.5298C56.3766 18.4228 56.1015 17.0241 56.1015 15.3338C56.1015 13.6036 56.3833 12.1586 56.9467 10.9985C57.5102 9.8385 58.2592 8.97013 59.1939 8.39342C60.1352 7.81672 61.1659 7.52837 62.2862 7.52837C63.1413 7.52837 63.8572 7.6742 64.4339 7.96587C65.0106 8.2509 65.4746 8.60886 65.826 9.03973C66.1839 9.46397 66.459 9.88158 66.6513 10.2926H66.8103V7.72723H71.0163V23.1491C71.0163 24.4483 70.6981 25.5355 70.0618 26.4105C69.4254 27.2855 68.5438 27.9417 67.4169 28.3792C66.2966 28.8233 65.0073 29.0454 63.549 29.0454ZM63.6385 19.5994C64.3212 19.5994 64.8979 19.4304 65.3686 19.0923C65.8459 18.7476 66.2104 18.2571 66.4623 17.6207C66.7209 16.9777 66.8501 16.2088 66.8501 15.3139C66.8501 14.419 66.7242 13.6434 66.4723 12.9872C66.2204 12.3243 65.8558 11.8106 65.3785 11.446C64.9013 11.0814 64.3212 10.8991 63.6385 10.8991C62.9425 10.8991 62.3558 11.088 61.8785 11.4659C61.4013 11.8371 61.04 12.3541 60.7947 13.017C60.5495 13.6799 60.4268 14.4455 60.4268 15.3139C60.4268 16.1955 60.5495 16.9578 60.7947 17.6008C61.0466 18.2372 61.4079 18.731 61.8785 19.0823C62.3558 19.427 62.9425 19.5994 63.6385 19.5994Z" fill="white"/>
<path d="M78.6228 2.63632V23H74.3871V2.63632H78.6228Z" fill="white"/>
<path d="M88.9762 23.2983C87.4052 23.2983 86.0529 22.9801 84.9194 22.3437C83.7925 21.7007 82.9241 20.7926 82.3143 19.6193C81.7044 18.4393 81.3995 17.044 81.3995 15.4332C81.3995 13.8622 81.7044 12.4834 82.3143 11.2968C82.9241 10.1103 83.7825 9.18556 84.8895 8.52268C86.0032 7.8598 87.309 7.52837 88.8072 7.52837C89.8147 7.52837 90.7527 7.69077 91.6211 8.01558C92.4961 8.33376 93.2584 8.81435 93.908 9.45734C94.5643 10.1003 95.0747 10.909 95.4393 11.8835C95.8038 12.8513 95.9861 13.9848 95.9861 15.284V16.4474H83.0898V13.8224H91.9989C91.9989 13.2126 91.8663 12.6723 91.6012 12.2017C91.336 11.731 90.9681 11.3631 90.4975 11.098C90.0335 10.8262 89.4932 10.6903 88.8768 10.6903C88.2338 10.6903 87.6637 10.8394 87.1665 11.1377C86.676 11.4294 86.2915 11.8238 86.0131 12.321C85.7347 12.8115 85.5922 13.3584 85.5856 13.9616V16.4573C85.5856 17.213 85.7248 17.866 86.0032 18.4161C86.2882 18.9663 86.6893 19.3906 87.2063 19.6889C87.7233 19.9872 88.3365 20.1363 89.0458 20.1363C89.5164 20.1363 89.9473 20.07 90.3384 19.9375C90.7295 19.8049 91.0643 19.606 91.3427 19.3409C91.6211 19.0757 91.8332 18.7509 91.979 18.3664L95.8966 18.625C95.6978 19.5662 95.2901 20.3882 94.6736 21.0909C94.0638 21.7869 93.275 22.3304 92.3072 22.7215C91.346 23.106 90.2357 23.2983 88.9762 23.2983Z" fill="white"/>
</svg>
